<svg width="708" height="263" viewBox="0 0 708 263" fill="none" xmlns="http://www.w3.org/2000/svg">
<path d="M2.8418 204.805H92.3854V187.04H21.1547V133.744H92.3854V115.979H2.8418V204.805Z" fill="url(#paint0_linear)"/>
<path d="M706.687 85.4249H0V86.8739H706.687V85.4249Z" fill="#2DAD71"/>
<path d="M310.055 115.349V143.383V143.32V204.679H292.374V115.349H310.055Z" fill="url(#paint1_linear)"/>
<path d="M381.16 115.349V143.383V143.32V204.679H363.479V115.349H381.16Z" fill="url(#paint2_linear)"/>
<path d="M238.952 115.475V143.509V204.805H221.271V115.475H238.952Z" fill="url(#paint3_linear)"/>
<path d="M112.088 115.286V204.805H201.631V115.286H112.088ZM184.013 186.536H130.401V133.051H184.013V186.536Z" fill="url(#paint4_linear)"/>
<path d="M292.374 176.645V204.679L238.951 143.509V115.475L292.374 176.645Z" fill="url(#paint5_linear)"/>
<path d="M363.479 176.645V204.679L310.056 143.509V115.475L363.479 176.645Z" fill="url(#paint6_linear)"/>
<path d="M399.852 204.805H489.395V186.536H418.164V168.96H489.395V151.194H418.164V133.051H489.395V115.286H399.852V204.805Z" fill="url(#paint7_linear)"/>
<path d="M509.034 204.805H598.578V187.04H527.347V133.744H598.578V115.979H509.034V204.805Z" fill="url(#paint8_linear)"/>
<path d="M618.28 115.475V133.744H653.517V204.805H671.893V133.744H707.129V115.475H618.28Z" fill="url(#paint9_linear)"/>
<path d="M243.562 226.917H247.603C248.045 226.917 248.424 227.043 248.676 227.232C248.929 227.421 249.182 227.736 249.245 228.051L256.633 252.872C256.759 253.313 256.886 253.817 257.012 254.321C257.138 254.825 257.201 255.392 257.328 255.959C257.454 255.392 257.58 254.825 257.707 254.321C257.833 253.817 257.959 253.313 258.086 252.872L266.484 228.051C266.61 227.799 266.8 227.484 267.052 227.295C267.368 227.043 267.684 226.917 268.126 226.917H269.515C269.957 226.917 270.273 227.043 270.589 227.232C270.905 227.421 271.031 227.736 271.157 228.051L279.556 252.872C279.872 253.754 280.124 254.699 280.377 255.833C280.503 255.266 280.566 254.762 280.629 254.258C280.692 253.754 280.819 253.313 280.945 252.872L288.396 228.051C288.46 227.736 288.649 227.484 288.965 227.232C289.281 226.98 289.596 226.854 290.038 226.854H293.827L282.65 262.574H278.293L269.2 235.296C269.01 234.792 268.821 234.162 268.694 233.532C268.631 233.847 268.505 234.162 268.442 234.477C268.379 234.792 268.315 235.044 268.189 235.296L259.096 262.574H254.739L243.562 226.917Z" fill="white"/>
<path d="M346.303 226.917V230.886H329.127V242.73H343.02V246.51H329.127V258.731H346.303V262.7H324.265V226.98H346.303V226.917Z" fill="white"/>
<path d="M401.115 226.917V230.886H383.939V242.73H397.831V246.51H383.939V258.731H401.115V262.7H379.076V226.98H401.115V226.917Z" fill="white"/>
<path d="M439.13 242.604H440.962C441.593 242.604 442.098 242.541 442.477 242.352C442.856 242.163 443.235 241.911 443.551 241.533L455.486 228.051C455.864 227.61 456.18 227.358 456.559 227.169C456.875 226.98 457.317 226.917 457.885 226.917H461.99L448.35 242.289C447.971 242.667 447.655 242.982 447.34 243.234C447.024 243.486 446.708 243.738 446.329 243.864C446.771 243.99 447.213 244.242 447.529 244.557C447.845 244.872 448.224 245.25 448.602 245.691L462.874 262.637H458.706C458.39 262.637 458.138 262.637 457.885 262.574C457.633 262.511 457.506 262.448 457.317 262.385C457.127 262.322 457.001 262.196 456.875 262.07C456.749 261.944 456.622 261.818 456.496 261.629L444.119 247.455C443.93 247.266 443.74 247.077 443.614 246.951C443.424 246.825 443.298 246.699 443.045 246.573C442.856 246.447 442.603 246.384 442.351 246.384C442.098 246.321 441.719 246.321 441.34 246.321H439.13V262.7H434.331V226.98H439.13V242.604Z" fill="white"/>
<path d="M707.319 240.462H489.964V241.911H707.319V240.462Z" fill="#2DAD71"/>
<path d="M217.355 240.462H0V241.911H217.355V240.462Z" fill="#2DAD71"/>
<path d="M226.512 243.864C225.628 245.061 224.238 245.88 222.66 245.88C220.07 245.88 217.923 243.738 217.923 241.155C217.923 238.572 220.07 236.43 222.66 236.43C224.238 236.43 225.691 237.249 226.512 238.446H227.522C226.575 236.745 224.743 235.611 222.66 235.611C219.565 235.611 217.103 238.131 217.103 241.155C217.103 244.242 219.628 246.699 222.66 246.699C224.743 246.699 226.575 245.565 227.522 243.864H226.512Z" fill="#2DAD71"/>
<path d="M486.491 244.998C488.618 244.998 490.343 243.277 490.343 241.155C490.343 239.033 488.618 237.312 486.491 237.312C484.363 237.312 482.639 239.033 482.639 241.155C482.639 243.277 484.363 244.998 486.491 244.998Z" fill="#2DAD71"/>
<path d="M286.186 0L310.498 42.0194L302.415 56.0049L278.104 14.0485L286.186 0Z" fill="white"/>
<path d="M261.938 42.0194L275.451 18.6473L283.534 32.6958L270.02 56.0049L261.938 42.0194Z" fill="white"/>
<path d="M391.77 30.3019C384.95 30.3019 381.098 34.4597 381.098 39.6255V47.2482C381.098 52.477 384.95 56.5719 391.77 56.5719C398.716 56.5719 402.379 52.414 402.379 47.2482V39.6255C402.379 34.5227 398.716 30.3019 391.77 30.3019ZM391.77 53.611C385.202 53.611 385.581 49.2642 385.581 43.5314C385.581 37.7986 385.202 33.3258 391.77 33.3258C398.337 33.3258 397.895 37.7986 397.895 43.5314C397.832 49.2642 398.337 53.611 391.77 53.611Z" fill="white"/>
<path d="M351.291 56.131H346.05L342.198 45.8624H327.674L323.885 56.131H318.833L332.347 22.2383H338.156L351.291 56.131ZM340.808 42.2715L335.062 26.9631H334.557L328.81 42.2715H340.808Z" fill="white"/>
<path d="M359.628 56.131H354.892V22.1753H359.628V56.131Z" fill="white"/>
<path d="M378.508 56.6349C374.088 56.8239 371.562 56.0679 370.362 54.9969C369.099 53.926 368.468 51.8471 368.468 48.6972V33.3258H363.227V30.2389H368.468V22.1122H373.267V30.2389H378.508V33.3258H373.204V48.9492C373.204 50.7761 373.52 51.973 374.214 52.603C374.909 53.17 376.298 53.485 378.445 53.485V56.6349H378.508Z" fill="white"/>
<path d="M444.561 27.0891H439.825V22.1753H444.561V27.0891ZM444.561 56.131H439.825V30.302H444.561V56.131Z" fill="white"/>
<path d="M433.573 45.1693V33.5777C433.573 26.774 429.027 22.1122 420.312 22.1122C411.787 22.1122 406.925 26.711 406.925 33.5777V45.2323C406.925 52.099 411.724 56.6979 420.312 56.6979C422.964 56.6979 425.175 56.2569 427.069 55.4379L430.353 58.7138L432.942 56.1309L430.289 53.422C432.437 51.4061 433.573 48.5712 433.573 45.1693ZM422.901 46.1143L420.312 48.6972L424.417 52.855C423.343 53.233 422.017 53.422 420.312 53.422C411.219 53.422 411.787 47.4372 411.787 39.4995C411.787 31.5618 411.282 25.3881 420.312 25.3881C429.405 25.3251 428.774 31.4988 428.774 39.4365C428.774 44.0353 428.963 48.0042 427.385 50.5241L422.901 46.1143Z" fill="white"/>
<defs>
<linearGradient id="paint0_linear" x1="16.0513" y1="128.904" x2="79.2147" y2="192.218" gradientUnits="userSpaceOnUse">
<stop offset="0.0507334" stop-color="#24DC86"/>
<stop offset="0.9372" stop-color="#2DAD71"/>
</linearGradient>
<linearGradient id="paint1_linear" x1="301.22" y1="117.539" x2="301.22" y2="203.359" gradientUnits="userSpaceOnUse">
<stop offset="0.0507334" stop-color="#24DC86"/>
<stop offset="0.9372" stop-color="#2DAD71"/>
</linearGradient>
<linearGradient id="paint2_linear" x1="372.328" y1="119.791" x2="372.328" y2="200.918" gradientUnits="userSpaceOnUse">
<stop stop-color="#24DC86"/>
<stop offset="1" stop-color="#2DAD71"/>
</linearGradient>
<linearGradient id="paint3_linear" x1="230.116" y1="118.54" x2="230.116" y2="202.23" gradientUnits="userSpaceOnUse">
<stop stop-color="#24DC86"/>
<stop offset="1" stop-color="#2DAD71"/>
</linearGradient>
<linearGradient id="paint4_linear" x1="130.049" y1="133.324" x2="193.21" y2="196.637" gradientUnits="userSpaceOnUse">
<stop offset="0.0507334" stop-color="#24DC86"/>
<stop offset="0.9372" stop-color="#2DAD71"/>
</linearGradient>
<linearGradient id="paint5_linear" x1="239.995" y1="130.682" x2="291.237" y2="189.626" gradientUnits="userSpaceOnUse">
<stop offset="0.0784488" stop-color="#2DAD71"/>
<stop offset="0.9425" stop-color="#24DC86"/>
</linearGradient>
<linearGradient id="paint6_linear" x1="315.177" y1="135.29" x2="359.118" y2="185.961" gradientUnits="userSpaceOnUse">
<stop offset="0.0784488" stop-color="#2DAD71"/>
<stop offset="0.9425" stop-color="#24DC86"/>
</linearGradient>
<linearGradient id="paint7_linear" x1="411.573" y1="127.115" x2="480.987" y2="196.695" gradientUnits="userSpaceOnUse">
<stop offset="0.0507334" stop-color="#24DC86"/>
<stop offset="0.9372" stop-color="#2DAD71"/>
</linearGradient>
<linearGradient id="paint8_linear" x1="515.477" y1="122.148" x2="593.7" y2="200.558" gradientUnits="userSpaceOnUse">
<stop offset="0.0507334" stop-color="#24DC86"/>
<stop offset="0.9372" stop-color="#2DAD71"/>
</linearGradient>
<linearGradient id="paint9_linear" x1="662.708" y1="121.545" x2="662.708" y2="197.725" gradientUnits="userSpaceOnUse">
<stop offset="0.0507334" stop-color="#24DC86"/>
<stop offset="0.9372" stop-color="#2DAD71"/>
</linearGradient>
</defs>
</svg>
